<svg width="345" height="186" viewBox="0 0 345 186" fill="none" xmlns="http://www.w3.org/2000/svg">
<g filter="url(#filter0_d_10_97)">
<path d="M11.0651 6.13632V41H2.63861V6.13632H11.0651ZM15.2146 12.9797V6.13632H44.6819V12.9797H34.1104V41H25.803V12.9797H15.2146ZM55.7257 6.13632V10.0176C55.7257 11.0958 55.5101 12.1853 55.0788 13.2861C54.6589 14.3756 54.1085 15.397 53.4276 16.3503C52.7466 17.3036 52.026 18.1094 51.2656 18.7676L47.7248 16.8269C48.2468 15.9644 48.7121 14.9941 49.1207 13.916C49.5292 12.8265 49.7335 11.5327 49.7335 10.0347V6.13632H55.7257ZM79.2519 16.5886C79.1384 15.3402 78.6334 14.3699 77.7368 13.6776C76.8516 12.974 75.5862 12.6222 73.9406 12.6222C72.8511 12.6222 71.9432 12.7641 71.2169 13.0478C70.4906 13.3315 69.9458 13.723 69.5827 14.2224C69.2195 14.7104 69.0322 15.2721 69.0209 15.9077C68.9982 16.4297 69.1003 16.8894 69.3273 17.2866C69.5656 17.6838 69.9061 18.0356 70.3487 18.342C70.8027 18.6371 71.3474 18.8981 71.9829 19.1251C72.6185 19.3521 73.3335 19.5507 74.1279 19.7209L77.124 20.4018C78.849 20.7763 80.3697 21.2757 81.6862 21.8999C83.014 22.5241 84.1262 23.2674 85.0228 24.1299C85.9307 24.9924 86.6173 25.9855 87.0826 27.109C87.5479 28.2325 87.7862 29.4923 87.7976 30.8882C87.7862 33.0898 87.2301 34.9794 86.1293 36.5569C85.0284 38.1344 83.4453 39.3431 81.3798 40.1829C79.3256 41.0227 76.8459 41.4426 73.9406 41.4426C71.024 41.4426 68.4818 41.0057 66.3142 40.1318C64.1466 39.258 62.4613 37.9301 61.2583 36.1484C60.0553 34.3666 59.4368 32.1138 59.4027 29.3901H67.4718C67.5399 30.5137 67.8406 31.4499 68.374 32.199C68.9074 32.948 69.6394 33.5154 70.57 33.9013C71.512 34.2872 72.6015 34.4801 73.8385 34.4801C74.9734 34.4801 75.938 34.3269 76.7324 34.0205C77.5382 33.714 78.1567 33.2885 78.588 32.7437C79.0192 32.199 79.2405 31.5748 79.2519 30.8711C79.2405 30.2129 79.0363 29.6511 78.639 29.1858C78.2418 28.7092 77.629 28.3006 76.8005 27.9602C75.9834 27.6084 74.9393 27.2849 73.6682 26.9898L70.0253 26.1387C67.0065 25.4464 64.6289 24.3285 62.8925 22.7851C61.1561 21.2303 60.2936 19.1308 60.305 16.4865C60.2936 14.3302 60.8724 12.4406 62.0413 10.8177C63.2103 9.19484 64.8275 7.92944 66.893 7.02153C68.9585 6.11362 71.3134 5.65967 73.9576 5.65967C76.6587 5.65967 79.0022 6.1193 80.9883 7.03855C82.9857 7.94646 84.5348 9.22321 85.6356 10.8688C86.7365 12.5144 87.2982 14.421 87.3209 16.5886H79.2519ZM121.197 16.5886C121.084 15.3402 120.579 14.3699 119.682 13.6776C118.797 12.974 117.532 12.6222 115.886 12.6222C114.796 12.6222 113.889 12.7641 113.162 13.0478C112.436 13.3315 111.891 13.723 111.528 14.2224C111.165 14.7104 110.978 15.2721 110.966 15.9077C110.944 16.4297 111.046 16.8894 111.273 17.2866C111.511 17.6838 111.851 18.0356 112.294 18.342C112.748 18.6371 113.293 18.8981 113.928 19.1251C114.564 19.3521 115.279 19.5507 116.073 19.7209L119.069 20.4018C120.794 20.7763 122.315 21.2757 123.632 21.8999C124.959 22.5241 126.072 23.2674 126.968 24.1299C127.876 24.9924 128.563 25.9855 129.028 27.109C129.493 28.2325 129.732 29.4923 129.743 30.8882C129.732 33.0898 129.175 34.9794 128.075 36.5569C126.974 38.1344 125.391 39.3431 123.325 40.1829C121.271 41.0227 118.791 41.4426 115.886 41.4426C112.969 41.4426 110.427 41.0057 108.26 40.1318C106.092 39.258 104.407 37.9301 103.204 36.1484C102.001 34.3666 101.382 32.1138 101.348 29.3901H109.417C109.485 30.5137 109.786 31.4499 110.319 32.199C110.853 32.948 111.585 33.5154 112.515 33.9013C113.457 34.2872 114.547 34.4801 115.784 34.4801C116.919 34.4801 117.883 34.3269 118.678 34.0205C119.484 33.714 120.102 33.2885 120.533 32.7437C120.965 32.199 121.186 31.5748 121.197 30.8711C121.186 30.2129 120.982 29.6511 120.584 29.1858C120.187 28.7092 119.574 28.3006 118.746 27.9602C117.929 27.6084 116.885 27.2849 115.614 26.9898L111.971 26.1387C108.952 25.4464 106.574 24.3285 104.838 22.7851C103.102 21.2303 102.239 19.1308 102.25 16.4865C102.239 14.3302 102.818 12.4406 103.987 10.8177C105.156 9.19484 106.773 7.92944 108.838 7.02153C110.904 6.11362 113.259 5.65967 115.903 5.65967C118.604 5.65967 120.948 6.1193 122.934 7.03855C124.931 7.94646 126.48 9.22321 127.581 10.8688C128.682 12.5144 129.244 14.421 129.266 16.5886H121.197ZM155.091 6.13632H163.5V28.6241C163.5 31.223 162.882 33.4871 161.645 35.4164C160.408 37.3343 158.683 38.821 156.469 39.8765C154.256 40.9206 151.686 41.4426 148.758 41.4426C145.796 41.4426 143.208 40.9206 140.995 39.8765C138.782 38.821 137.063 37.3343 135.837 35.4164C134.612 33.4871 133.999 31.223 133.999 28.6241V6.13632H142.425V27.8921C142.425 29.0951 142.686 30.1675 143.208 31.1095C143.742 32.0514 144.485 32.7891 145.438 33.3225C146.392 33.8559 147.498 34.1226 148.758 34.1226C150.018 34.1226 151.118 33.8559 152.06 33.3225C153.014 32.7891 153.757 32.0514 154.29 31.1095C154.824 30.1675 155.091 29.0951 155.091 27.8921V6.13632ZM168.782 6.13632H179.217L188.069 27.7218H188.478L197.33 6.13632H207.765V41H199.56V19.5847H199.27L190.895 40.7787H185.652L177.276 19.4656H176.987V41H168.782V6.13632ZM213.021 6.13632H223.456L232.308 27.7218H232.717L241.569 6.13632H252.004V41H243.799V19.5847H243.51L235.134 40.7787H229.891L221.515 19.4656H221.226V41H213.021V6.13632ZM257.26 41V6.13632H281.569V12.9797H265.687V20.1295H280.327V26.9898H265.687V34.1566H281.569V41H257.26ZM286.847 41V6.13632H301.248C303.858 6.13632 306.111 6.6073 308.006 7.54925C309.913 8.47986 311.383 9.81902 312.415 11.5667C313.448 13.3031 313.965 15.3629 313.965 17.7462C313.965 20.1635 313.437 22.2176 312.381 23.9086C311.326 25.5883 309.828 26.8707 307.887 27.7559C305.947 28.6297 303.649 29.0667 300.993 29.0667H291.885V22.4276H299.427C300.698 22.4276 301.759 22.263 302.61 21.9339C303.473 21.5935 304.125 21.0828 304.568 20.4018C305.01 19.7096 305.232 18.8243 305.232 17.7462C305.232 16.6681 305.01 15.7772 304.568 15.0735C304.125 14.3586 303.473 13.8252 302.61 13.4734C301.748 13.1102 300.686 12.9286 299.427 12.9286H295.273V41H286.847ZM306.474 25.0662L315.156 41H305.964L297.452 25.0662H306.474ZM328.375 6.13632L327.592 30.3264H320.595L319.812 6.13632H328.375ZM324.085 41.4937C322.871 41.4937 321.827 41.0624 320.953 40.1999C320.09 39.3374 319.659 38.2933 319.659 37.0676C319.659 35.8646 320.09 34.8376 320.953 33.9864C321.827 33.1239 322.871 32.6926 324.085 32.6926C325.254 32.6926 326.281 33.1239 327.166 33.9864C328.063 34.8376 328.511 35.8646 328.511 37.0676C328.511 37.8847 328.301 38.6281 327.881 39.2977C327.473 39.9673 326.934 40.5007 326.264 40.8979C325.606 41.2951 324.879 41.4937 324.085 41.4937Z" fill="white"/>
</g>
<g filter="url(#filter1_d_10_97)">
<path d="M21.4237 114.359C18.002 114.359 14.9622 113.74 12.3043 112.503C9.64639 111.266 7.54602 109.563 6.00321 107.393C4.47568 105.224 3.68136 102.734 3.62026 99.9238H14.6185C14.7102 101.65 15.4128 103.04 16.7265 104.094C18.0402 105.133 19.6059 105.652 21.4237 105.652C22.8443 105.652 24.1045 105.339 25.2043 104.713C26.3042 104.086 27.1672 103.208 27.7935 102.078C28.4198 100.932 28.7253 99.6183 28.71 98.1365C28.7253 96.6243 28.4122 95.303 27.7706 94.1726C27.1443 93.0422 26.2736 92.1639 25.1585 91.5376C24.0587 90.896 22.7908 90.5752 21.3549 90.5752C19.9954 90.56 18.7047 90.8578 17.4826 91.4689C16.2759 92.0799 15.3594 92.9124 14.7331 93.9664L4.72008 92.0875L6.75934 66.7915H36.8671V75.9338H16.0849L15.008 87.0008H15.283C16.062 85.7024 17.3146 84.6331 19.0407 83.793C20.7821 82.9376 22.7603 82.5099 24.9752 82.5099C27.7859 82.5099 30.291 83.1667 32.4907 84.4804C34.7056 85.7788 36.447 87.5813 37.7148 89.8879C38.998 92.1944 39.6395 94.8371 39.6395 97.8158C39.6395 101.039 38.8758 103.895 37.3482 106.385C35.836 108.875 33.7127 110.83 30.9784 112.251C28.2594 113.656 25.0745 114.359 21.4237 114.359ZM65.2735 114.863C61.1797 114.863 57.6511 113.893 54.6877 111.953C51.7243 109.998 49.4406 107.195 47.8367 103.544C46.2328 99.8779 45.4384 95.471 45.4537 90.3232C45.469 85.1754 46.271 80.8067 47.8596 77.2169C49.4635 73.612 51.7395 70.87 54.6877 68.9912C57.6511 67.097 61.1797 66.15 65.2735 66.15C69.3673 66.15 72.8959 67.097 75.8593 68.9912C78.838 70.87 81.1293 73.612 82.7332 77.2169C84.3371 80.8219 85.1315 85.1907 85.1162 90.3232C85.1162 95.4863 84.3142 99.9008 82.7103 103.567C81.1064 107.233 78.8227 110.036 75.8593 111.976C72.9112 113.901 69.3826 114.863 65.2735 114.863ZM65.2735 105.583C67.7176 105.583 69.6957 104.338 71.208 101.848C72.7202 99.3433 73.4687 95.5015 73.4534 90.3232C73.4534 86.9321 73.1098 84.1367 72.4224 81.937C71.735 79.7221 70.7803 78.0724 69.5582 76.9878C68.3362 75.9033 66.908 75.361 65.2735 75.361C62.8447 75.361 60.8818 76.5907 59.3848 79.05C57.8879 81.494 57.1317 85.2518 57.1165 90.3232C57.1012 93.7602 57.4296 96.609 58.1017 98.8698C58.7891 101.131 59.7515 102.818 60.9888 103.934C62.2261 105.033 63.6543 105.583 65.2735 105.583ZM117.893 104.919V102.444C117.893 100.52 118.306 98.7399 119.131 97.1055C119.971 95.471 121.185 94.1573 122.774 93.1644C124.362 92.1715 126.302 91.6751 128.594 91.6751C130.931 91.6751 132.894 92.1715 134.482 93.1644C136.086 94.142 137.293 95.4481 138.103 97.0825C138.927 98.7017 139.34 100.489 139.34 102.444V104.919C139.34 106.843 138.927 108.623 138.103 110.258C137.278 111.892 136.063 113.206 134.459 114.199C132.855 115.191 130.9 115.688 128.594 115.688C126.272 115.688 124.317 115.191 122.728 114.199C121.139 113.206 119.933 111.892 119.108 110.258C118.298 108.623 117.893 106.843 117.893 104.919ZM125.203 102.444V104.919C125.203 105.896 125.439 106.836 125.913 107.737C126.402 108.638 127.295 109.089 128.594 109.089C129.923 109.089 130.816 108.654 131.274 107.783C131.733 106.897 131.962 105.942 131.962 104.919V102.444C131.962 101.421 131.74 100.458 131.297 99.5572C130.87 98.6406 129.968 98.1824 128.594 98.1824C127.311 98.1824 126.425 98.6406 125.936 99.5572C125.447 100.458 125.203 101.421 125.203 102.444ZM93.5596 78.0647V75.5901C93.5596 73.6349 93.9797 71.8477 94.8199 70.2285C95.6753 68.594 96.8973 67.288 98.4859 66.3103C100.075 65.3174 101.999 64.821 104.26 64.821C106.597 64.821 108.56 65.3174 110.149 66.3103C111.753 67.288 112.967 68.594 113.792 70.2285C114.617 71.8477 115.029 73.6349 115.029 75.5901V78.0647C115.029 80.02 114.609 81.8072 113.769 83.4264C112.944 85.0456 111.73 86.3363 110.126 87.2987C108.522 88.261 106.567 88.7422 104.26 88.7422C101.953 88.7422 99.9982 88.2534 98.3943 87.2758C96.8056 86.2981 95.5989 84.9997 94.774 83.3806C93.9644 81.7614 93.5596 79.9894 93.5596 78.0647ZM100.938 75.5901V78.0647C100.938 79.0882 101.174 80.0429 101.648 80.9289C102.137 81.7996 103.007 82.2349 104.26 82.2349C105.604 82.2349 106.498 81.7996 106.941 80.9289C107.399 80.0429 107.628 79.0882 107.628 78.0647V75.5901C107.628 74.5667 107.414 73.6043 106.987 72.7031C106.559 71.7866 105.65 71.3283 104.26 71.3283C102.977 71.3283 102.099 71.7942 101.625 72.726C101.167 73.6578 100.938 74.6125 100.938 75.5901ZM97.0195 113.717L129.281 66.7915H135.536L103.275 113.717H97.0195ZM47.8424 155.254C47.8424 160.418 46.8495 164.794 44.8637 168.384C42.8779 171.973 40.1895 174.7 36.7983 176.564C33.4225 178.427 29.6342 179.359 25.4335 179.359C21.2175 179.359 17.4215 178.42 14.0457 176.541C10.6698 174.662 7.98901 171.935 6.00321 168.361C4.03269 164.771 3.04743 160.402 3.04743 155.254C3.04743 150.091 4.03269 145.715 6.00321 142.125C7.98901 138.536 10.6698 135.809 14.0457 133.945C17.4215 132.082 21.2175 131.15 25.4335 131.15C29.6342 131.15 33.4225 132.082 36.7983 133.945C40.1895 135.809 42.8779 138.536 44.8637 142.125C46.8495 145.715 47.8424 150.091 47.8424 155.254ZM36.2484 155.254C36.2484 152.199 35.8131 149.618 34.9424 147.51C34.087 145.402 32.8496 143.806 31.2305 142.721C29.6265 141.636 27.6942 141.094 25.4335 141.094C23.188 141.094 21.2557 141.636 19.6365 142.721C18.0173 143.806 16.7723 145.402 15.9016 147.51C15.0462 149.618 14.6185 152.199 14.6185 155.254C14.6185 158.31 15.0462 160.891 15.9016 162.999C16.7723 165.107 18.0173 166.703 19.6365 167.788C21.2557 168.872 23.188 169.415 25.4335 169.415C27.6942 169.415 29.6265 168.872 31.2305 167.788C32.8496 166.703 34.087 165.107 34.9424 162.999C35.8131 160.891 36.2484 158.31 36.2484 155.254ZM54.4643 178.717V131.792H86.4967V141.003H65.8062V150.626H84.4574V159.86H65.8062V178.717H54.4643ZM92.2078 178.717V131.792H124.24V141.003H103.55V150.626H122.201V159.86H103.55V178.717H92.2078Z" fill="white"/>
</g>
<g filter="url(#filter2_d_10_97)">
<path d="M299.077 77.6709C299.077 81.0441 298.428 83.9033 297.131 86.2486C295.834 88.5939 294.077 90.3753 291.862 91.5928C289.656 92.8104 287.181 93.4192 284.437 93.4192C281.682 93.4192 279.202 92.8054 276.996 91.5779C274.791 90.3503 273.039 88.5689 271.742 86.2336C270.455 83.8884 269.811 81.0341 269.811 77.6709C269.811 74.2977 270.455 71.4384 271.742 69.0932C273.039 66.7479 274.791 64.9665 276.996 63.7489C279.202 62.5314 281.682 61.9226 284.437 61.9226C287.181 61.9226 289.656 62.5314 291.862 63.7489C294.077 64.9665 295.834 66.7479 297.131 69.0932C298.428 71.4384 299.077 74.2977 299.077 77.6709ZM291.502 77.6709C291.502 75.6749 291.218 73.9883 290.649 72.6111C290.09 71.2338 289.282 70.1909 288.224 69.4824C287.176 68.7738 285.914 68.4195 284.437 68.4195C282.969 68.4195 281.707 68.7738 280.649 69.4824C279.591 70.1909 278.778 71.2338 278.209 72.6111C277.65 73.9883 277.371 75.6749 277.371 77.6709C277.371 79.6669 277.65 81.3535 278.209 82.7307C278.778 84.1079 279.591 85.1508 280.649 85.8594C281.707 86.568 282.969 86.9222 284.437 86.9222C285.914 86.9222 287.176 86.568 288.224 85.8594C289.282 85.1508 290.09 84.1079 290.649 82.7307C291.218 81.3535 291.502 79.6669 291.502 77.6709ZM329.496 62.3418V93H323.208L311.008 75.3056H310.813V93H303.403V62.3418H309.78L321.846 80.0062H322.101V62.3418H329.496ZM185.46 135V104.342H198.244C200.539 104.342 202.46 104.666 204.007 105.315C205.564 105.963 206.732 106.872 207.51 108.039C208.299 109.207 208.693 110.559 208.693 112.096C208.693 113.264 208.448 114.307 207.959 115.225C207.47 116.133 206.797 116.886 205.938 117.485C205.08 118.084 204.087 118.503 202.959 118.743V119.042C204.197 119.102 205.34 119.436 206.387 120.045C207.445 120.654 208.294 121.502 208.932 122.59C209.571 123.668 209.89 124.945 209.89 126.422C209.89 128.069 209.471 129.541 208.633 130.838C207.795 132.126 206.582 133.144 204.995 133.892C203.408 134.631 201.482 135 199.217 135H185.46ZM192.87 129.027H197.45C199.057 129.027 200.24 128.723 200.998 128.114C201.767 127.505 202.151 126.657 202.151 125.569C202.151 124.781 201.966 124.102 201.597 123.533C201.228 122.954 200.704 122.51 200.025 122.201C199.347 121.881 198.533 121.722 197.585 121.722H192.87V129.027ZM192.87 116.946H196.971C197.78 116.946 198.498 116.812 199.127 116.542C199.756 116.273 200.245 115.884 200.594 115.375C200.953 114.866 201.133 114.252 201.133 113.533C201.133 112.505 200.769 111.697 200.04 111.108C199.312 110.519 198.329 110.225 197.091 110.225H192.87V116.946ZM213.453 135V104.342H234.83V110.36H220.863V116.647H233.737V122.68H220.863V128.982H234.83V135H213.453ZM246.102 135H238.138L248.483 104.342H258.348L268.692 135H260.728L253.528 112.066H253.288L246.102 135ZM245.04 122.934H261.686V128.563H245.04V122.934ZM298.381 115.449H290.896C290.796 114.681 290.592 113.987 290.282 113.369C289.973 112.75 289.564 112.221 289.055 111.782C288.546 111.343 287.942 111.008 287.243 110.779C286.555 110.539 285.791 110.42 284.953 110.42C283.466 110.42 282.184 110.784 281.106 111.512C280.038 112.241 279.215 113.294 278.636 114.671C278.067 116.048 277.782 117.715 277.782 119.671C277.782 121.707 278.072 123.413 278.651 124.791C279.239 126.158 280.063 127.191 281.121 127.889C282.189 128.578 283.451 128.922 284.908 128.922C285.726 128.922 286.47 128.817 287.139 128.608C287.817 128.398 288.411 128.094 288.92 127.695C289.439 127.286 289.863 126.792 290.192 126.213C290.532 125.624 290.766 124.96 290.896 124.222L298.381 124.267C298.251 125.624 297.857 126.961 297.198 128.279C296.55 129.596 295.656 130.798 294.519 131.886C293.381 132.964 291.994 133.822 290.357 134.461C288.73 135.1 286.864 135.419 284.758 135.419C281.984 135.419 279.499 134.81 277.303 133.593C275.118 132.365 273.391 130.579 272.124 128.234C270.856 125.888 270.223 123.034 270.223 119.671C270.223 116.298 270.866 113.438 272.154 111.093C273.441 108.748 275.183 106.966 277.378 105.749C279.574 104.531 282.034 103.923 284.758 103.923C286.615 103.923 288.331 104.182 289.908 104.701C291.485 105.21 292.872 105.958 294.07 106.947C295.267 107.925 296.24 109.127 296.989 110.554C297.737 111.981 298.201 113.613 298.381 115.449ZM302.621 135V104.342H310.031V116.647H322.112V104.342H329.507V135H322.112V122.68H310.031V135H302.621ZM208.225 146.342V177H200.815V146.342H208.225ZM211.874 152.36V146.342H237.787V152.36H228.49V177H221.185V152.36H211.874ZM241.406 177V146.342H262.783V152.36H248.816V158.647H261.69V164.68H248.816V170.982H262.783V177H241.406ZM267.423 146.342H276.6L284.384 165.324H284.743L292.528 146.342H301.704V177H294.489V158.168H294.234L286.869 176.805H282.258L274.893 158.063H274.639V177H267.423V146.342ZM322.898 155.533C322.798 154.435 322.354 153.582 321.565 152.973C320.787 152.355 319.674 152.045 318.227 152.045C317.269 152.045 316.471 152.17 315.832 152.42C315.193 152.669 314.714 153.013 314.395 153.452C314.076 153.882 313.911 154.376 313.901 154.934C313.881 155.394 313.971 155.798 314.17 156.147C314.38 156.496 314.679 156.806 315.069 157.075C315.468 157.335 315.947 157.564 316.506 157.764C317.065 157.963 317.693 158.138 318.392 158.288L321.027 158.886C322.543 159.216 323.881 159.655 325.038 160.204C326.206 160.753 327.184 161.406 327.973 162.165C328.771 162.923 329.375 163.797 329.784 164.785C330.193 165.773 330.403 166.88 330.413 168.108C330.403 170.044 329.914 171.706 328.946 173.093C327.978 174.48 326.585 175.543 324.769 176.281C322.963 177.02 320.782 177.389 318.227 177.389C315.662 177.389 313.427 177.005 311.521 176.237C309.615 175.468 308.133 174.3 307.075 172.734C306.017 171.167 305.473 169.186 305.443 166.791H312.539C312.599 167.779 312.863 168.602 313.332 169.261C313.801 169.919 314.445 170.418 315.263 170.758C316.091 171.097 317.05 171.267 318.137 171.267C319.135 171.267 319.984 171.132 320.682 170.862C321.391 170.593 321.935 170.219 322.314 169.74C322.693 169.261 322.888 168.712 322.898 168.093C322.888 167.514 322.708 167.02 322.359 166.611C322.01 166.192 321.471 165.832 320.742 165.533C320.024 165.224 319.105 164.939 317.988 164.68L314.784 163.931C312.129 163.323 310.039 162.34 308.512 160.982C306.985 159.615 306.226 157.769 306.236 155.443C306.226 153.547 306.735 151.886 307.763 150.458C308.791 149.031 310.213 147.919 312.03 147.12C313.846 146.322 315.917 145.923 318.242 145.923C320.617 145.923 322.678 146.327 324.425 147.135C326.181 147.934 327.543 149.056 328.511 150.503C329.48 151.95 329.974 153.627 329.993 155.533H322.898Z" fill="white"/>
</g>
<defs>
<filter id="filter0_d_10_97" x="0.329915" y="5.65967" width="332.029" height="41.9905" filterUnits="userSpaceOnUse" color-interpolation-filters="sRGB">
<feFlood flood-opacity="0" result="BackgroundImageFix"/>
<feColorMatrix in="SourceAlpha" type="matrix" values="0 0 0 0 0 0 0 0 0 0 0 0 0 0 0 0 0 0 127 0" result="hardAlpha"/>
<feOffset dx="0.769565" dy="3.07826"/>
<feGaussianBlur stdDeviation="1.53913"/>
<feComposite in2="hardAlpha" operator="out"/>
<feColorMatrix type="matrix" values="0 0 0 0 0 0 0 0 0 0 0 0 0 0 0 0 0 0 0.2 0"/>
<feBlend mode="normal" in2="BackgroundImageFix" result="effect1_dropShadow_10_97"/>
<feBlend mode="normal" in="SourceGraphic" in2="effect1_dropShadow_10_97" result="shape"/>
</filter>
<filter id="filter1_d_10_97" x="0.738729" y="64.821" width="142.449" height="120.694" filterUnits="userSpaceOnUse" color-interpolation-filters="sRGB">
<feFlood flood-opacity="0" result="BackgroundImageFix"/>
<feColorMatrix in="SourceAlpha" type="matrix" values="0 0 0 0 0 0 0 0 0 0 0 0 0 0 0 0 0 0 127 0" result="hardAlpha"/>
<feOffset dx="0.769565" dy="3.07826"/>
<feGaussianBlur stdDeviation="1.53913"/>
<feComposite in2="hardAlpha" operator="out"/>
<feColorMatrix type="matrix" values="0 0 0 0 0 0 0 0 0 0 0 0 0 0 0 0 0 0 0.2 0"/>
<feBlend mode="normal" in2="BackgroundImageFix" result="effect1_dropShadow_10_97"/>
<feBlend mode="normal" in="SourceGraphic" in2="effect1_dropShadow_10_97" result="shape"/>
</filter>
<filter id="filter2_d_10_97" x="183.151" y="61.9226" width="151.11" height="121.623" filterUnits="userSpaceOnUse" color-interpolation-filters="sRGB">
<feFlood flood-opacity="0" result="BackgroundImageFix"/>
<feColorMatrix in="SourceAlpha" type="matrix" values="0 0 0 0 0 0 0 0 0 0 0 0 0 0 0 0 0 0 127 0" result="hardAlpha"/>
<feOffset dx="0.769565" dy="3.07826"/>
<feGaussianBlur stdDeviation="1.53913"/>
<feComposite in2="hardAlpha" operator="out"/>
<feColorMatrix type="matrix" values="0 0 0 0 0 0 0 0 0 0 0 0 0 0 0 0 0 0 0.2 0"/>
<feBlend mode="normal" in2="BackgroundImageFix" result="effect1_dropShadow_10_97"/>
<feBlend mode="normal" in="SourceGraphic" in2="effect1_dropShadow_10_97" result="shape"/>
</filter>
</defs>
</svg>
